<?xml version="1.0" standalone="no"?>
<!DOCTYPE svg PUBLIC "-//W3C//DTD SVG 20010904//EN"
 "http://www.w3.org/TR/2001/REC-SVG-20010904/DTD/svg10.dtd">
<svg version="1.0" xmlns="http://www.w3.org/2000/svg"
 width="311.000000pt" height="301.000000pt" viewBox="0 0 311.000000 301.000000"
 preserveAspectRatio="xMidYMid meet">

<g transform="translate(0.000000,301.000000) scale(0.100000,-0.100000)"
fill="#000000" stroke="none">
<path d="M0 1505 l0 -1505 1555 0 1555 0 0 1505 0 1505 -1555 0 -1555 0 0
-1505z m1587 1349 c-3 -3 3 -15 13 -27 11 -11 24 -35 31 -54 6 -18 15 -31 20
-28 5 4 6 -2 2 -11 -4 -10 -2 -15 3 -11 5 3 10 -7 9 -21 0 -16 5 -26 12 -25 8
2 10 -4 6 -14 -5 -12 -3 -14 7 -8 9 5 11 4 6 -4 -4 -6 3 -33 15 -59 13 -26 25
-55 26 -65 4 -22 31 -77 39 -77 3 0 2 5 -2 12 -4 6 -3 8 4 5 5 -4 8 -15 6 -25
-3 -9 2 -26 11 -37 9 -11 13 -14 9 -6 -4 9 -3 12 4 8 5 -4 8 -16 5 -27 -3 -11
2 -30 10 -43 8 -13 17 -34 19 -48 1 -13 10 -24 18 -24 9 0 14 -8 12 -19 -2
-10 1 -15 6 -12 5 3 7 -5 5 -18 -3 -13 1 -27 8 -31 8 -6 10 -4 4 5 -5 8 -4 11
3 6 6 -4 9 -13 6 -20 -3 -8 5 -34 17 -58 24 -46 26 -49 28 -74 0 -8 5 -13 9
-10 5 3 8 -5 8 -17 -1 -12 4 -21 11 -20 7 2 10 -3 7 -11 -3 -8 0 -17 7 -22 8
-5 10 -3 4 6 -5 8 -4 11 3 6 6 -4 9 -12 6 -19 -2 -7 7 -39 21 -70 13 -31 22
-57 20 -57 -3 0 1 -13 10 -30 9 -16 18 -30 21 -30 3 0 2 5 -2 12 -4 7 -3 8 4
4 6 -4 8 -14 5 -23 -4 -10 -2 -14 4 -10 6 4 11 1 10 -6 -1 -32 4 -48 13 -42 5
3 8 0 5 -7 -3 -7 4 -31 15 -53 11 -21 20 -45 20 -52 0 -6 5 -15 12 -19 7 -5 8
-3 3 6 -5 9 -4 11 4 6 6 -4 9 -12 5 -17 -9 -15 5 -61 16 -54 6 4 7 -1 3 -11
-5 -13 -3 -15 7 -9 8 5 11 4 7 -2 -3 -5 3 -26 13 -47 11 -20 22 -46 24 -59 2
-12 9 -21 15 -20 6 2 8 -4 4 -14 -4 -11 -3 -14 5 -9 7 4 10 2 6 -7 -2 -7 3
-23 13 -33 10 -11 14 -13 8 -4 -9 13 -8 13 7 2 9 -8 15 -19 12 -26 -4 -11 40
-61 54 -61 4 0 6 -4 4 -9 -4 -11 18 -37 27 -32 3 2 6 -6 6 -17 0 -22 -2 -22
-201 -22 -196 0 -201 0 -196 20 3 11 12 26 19 33 7 8 10 18 7 24 -4 7 -2 8 4
4 6 -4 19 3 29 15 10 12 26 29 36 38 19 17 23 66 5 77 -7 5 -8 3 -3 -6 5 -8 4
-11 -3 -7 -5 4 -8 16 -5 27 3 10 -4 34 -15 52 -11 18 -22 46 -26 61 -4 17 -11
25 -18 21 -7 -4 -8 -3 -4 5 9 15 -3 53 -15 46 -5 -3 -6 2 -2 11 5 13 3 15 -7
9 -9 -5 -11 -4 -6 4 10 15 -3 53 -15 45 -5 -3 -9 -2 -8 3 1 4 -3 22 -10 38
-13 30 -19 51 -20 71 -1 5 -8 19 -17 30 -8 10 -12 13 -8 5 5 -9 3 -12 -5 -7
-6 4 -9 12 -6 17 9 13 -5 50 -16 44 -5 -3 -6 2 -2 11 4 12 3 15 -6 10 -6 -4
-11 -4 -9 1 6 23 -43 153 -58 153 -3 0 -2 -5 2 -12 4 -6 3 -8 -4 -5 -5 4 -8
17 -4 29 3 13 1 19 -5 15 -7 -5 -9 1 -5 15 4 16 2 19 -8 13 -9 -5 -11 -4 -6 3
4 7 -7 37 -23 67 -17 30 -30 56 -30 58 3 12 -15 56 -22 51 -5 -3 -6 3 -2 12 5
13 3 15 -7 9 -9 -6 -11 -4 -5 4 10 17 -15 62 -29 54 -6 -3 -8 -3 -4 2 4 4 0
24 -8 44 -9 20 -20 51 -26 69 -5 18 -13 30 -18 27 -6 -3 -7 1 -4 10 7 18 -14
47 -29 38 -6 -3 -7 -1 -3 5 9 15 -3 62 -16 62 -6 0 -8 -9 -5 -20 3 -13 1 -18
-6 -13 -6 4 -8 0 -4 -10 4 -10 2 -16 -5 -14 -6 1 -14 -11 -18 -28 -4 -16 -15
-43 -23 -59 -9 -16 -13 -34 -10 -39 4 -6 1 -7 -7 -2 -10 6 -12 4 -7 -8 4 -10
2 -16 -6 -14 -7 1 -12 -8 -11 -20 0 -12 -4 -19 -9 -16 -6 4 -8 -1 -4 -11 4 -9
3 -15 -2 -11 -5 3 -12 -9 -16 -27 -4 -18 -14 -41 -22 -50 -8 -9 -16 -28 -17
-41 0 -14 -4 -23 -8 -21 -10 6 -20 -34 -12 -47 5 -8 3 -9 -6 -4 -10 6 -12 4
-7 -8 4 -10 2 -16 -6 -14 -7 1 -12 -8 -11 -20 0 -12 -3 -20 -6 -18 -8 5 -55
-113 -53 -132 0 -7 -4 -10 -10 -6 -6 4 -8 0 -4 -11 4 -9 3 -15 -2 -12 -11 7
-23 -22 -14 -36 4 -7 1 -8 -7 -3 -10 6 -12 4 -7 -9 4 -10 3 -15 -3 -11 -6 3
-10 -2 -10 -12 0 -10 -9 -37 -20 -58 -11 -22 -18 -46 -15 -53 3 -8 0 -10 -7
-6 -8 5 -9 2 -5 -10 4 -9 3 -14 -2 -11 -12 7 -24 -31 -15 -46 5 -8 3 -9 -6 -4
-10 6 -12 4 -7 -8 3 -9 2 -16 -4 -14 -11 2 -60 -115 -63 -150 0 -11 -5 -19
-10 -15 -5 3 -7 -2 -3 -11 3 -9 1 -19 -5 -23 -7 -5 -8 -2 -4 7 4 8 0 5 -8 -6
-9 -11 -14 -25 -11 -33 2 -7 1 -11 -4 -8 -5 3 -12 -1 -15 -10 -4 -10 -2 -13 7
-8 9 5 9 4 0 -7 -7 -7 -13 -24 -13 -36 0 -28 34 -68 49 -59 5 4 13 1 17 -5 5
-8 3 -9 -7 -4 -8 5 1 -7 19 -25 17 -19 32 -42 32 -52 0 -17 -13 -18 -195 -18
-227 0 -230 2 -147 86 58 60 85 101 78 119 -3 8 0 17 6 21 7 5 8 2 3 -6 -6 -9
-4 -11 4 -6 7 5 10 14 7 22 -3 8 0 13 7 11 7 -1 12 8 11 20 0 12 4 19 9 16 6
-4 8 1 4 11 -4 10 -3 15 3 11 6 -3 10 2 10 12 1 10 9 36 20 58 10 22 16 44 13
49 -4 5 0 6 7 1 10 -6 12 -4 7 9 -4 9 -3 15 2 12 11 -7 23 22 14 36 -4 7 -1 8
7 3 10 -6 12 -3 8 13 -4 12 -3 20 2 17 6 -4 22 30 17 38 -1 2 6 15 16 31 10
15 16 34 13 41 -3 8 0 17 6 21 7 5 8 2 3 -6 -6 -9 -4 -11 4 -5 7 4 11 18 8 31
-2 14 0 21 6 17 6 -4 8 0 4 10 -3 9 -1 19 5 23 7 5 8 2 4 -7 -4 -8 0 -5 9 6 9
11 14 28 12 37 -3 10 0 16 6 15 6 -1 13 7 15 18 2 11 10 35 18 53 9 18 13 40
10 47 -3 8 0 17 6 21 7 5 8 2 3 -6 -6 -9 -4 -11 4 -6 7 5 10 14 7 22 -3 8 0
13 7 11 7 -1 12 8 11 20 0 12 4 19 9 16 6 -4 8 1 4 10 -4 10 -2 16 5 14 6 -1
11 10 12 25 1 15 10 36 20 47 10 11 16 27 12 36 -4 11 -2 14 6 9 8 -5 9 -2 5
10 -4 9 -3 14 2 11 12 -7 24 31 15 46 -5 8 -3 9 6 4 10 -6 12 -4 7 9 -4 9 -3
15 2 12 8 -5 16 13 19 38 0 5 4 12 9 15 13 9 54 121 48 131 -3 5 0 12 6 16 8
5 10 2 5 -7 -4 -8 0 -5 8 6 9 11 14 25 11 33 -3 8 0 10 7 6 8 -5 9 -2 5 10 -4
10 -3 15 3 11 6 -3 10 2 10 12 0 10 9 37 20 58 11 22 18 46 15 53 -3 8 0 10 7
6 8 -5 9 -2 5 9 -4 10 -2 16 6 14 7 -1 12 8 12 20 0 12 5 26 9 30 5 5 6 2 1
-6 -6 -10 -4 -12 4 -7 7 5 10 15 6 24 -3 9 -3 14 0 10 3 -3 17 5 30 18 13 13
27 24 31 24 4 0 5 -3 1 -6z m-900 -230 c23 -6 23 -7 4 -33 -10 -14 -33 -55
-51 -91 -44 -87 -83 -135 -136 -166 -28 -16 -52 -41 -64 -65 -28 -53 -25 -58
13 -22 17 17 42 36 55 42 36 19 115 15 157 -6 l37 -20 -56 -61 c-70 -75 -119
-96 -207 -90 -68 5 -63 11 -93 -92 l-16 -52 43 45 c50 53 103 73 171 63 57 -9
58 -22 10 -96 -47 -74 -99 -109 -178 -123 -63 -11 -64 -11 -70 -46 -3 -20 -6
-58 -6 -86 l0 -50 28 50 c32 60 92 95 160 95 l44 0 -7 -37 c-21 -118 -95 -202
-198 -227 -20 -5 -27 -11 -23 -24 2 -9 8 -45 11 -79 4 -35 11 -63 16 -63 5 0
9 9 9 20 0 64 74 137 149 147 l38 5 -4 -58 c-8 -116 -51 -191 -135 -235 -12
-6 -24 -13 -26 -14 -6 -5 51 -145 59 -145 5 0 6 6 3 14 -9 24 17 100 44 129
15 16 44 37 64 48 l37 19 10 -38 c29 -103 5 -205 -63 -271 l-35 -34 26 -41
c14 -22 35 -52 45 -66 l20 -25 -7 46 c-5 32 -2 57 10 85 17 42 71 104 91 104
6 0 21 -21 32 -47 42 -100 38 -182 -14 -258 l-25 -38 47 -48 c54 -55 68 -61
54 -23 -20 51 -12 117 20 167 16 26 33 47 38 47 13 0 51 -55 78 -113 27 -60
30 -116 9 -177 -8 -23 -15 -44 -15 -46 0 -6 104 -74 113 -74 5 0 -1 15 -12 34
-13 21 -21 50 -21 79 0 52 26 127 44 127 17 0 101 -89 122 -130 13 -24 18 -57
19 -109 l0 -74 70 -25 c39 -13 111 -32 160 -42 50 -11 109 -26 132 -34 39 -14
47 -13 96 3 29 10 84 24 122 31 39 6 106 24 150 38 l80 27 0 75 c1 52 6 86 19
110 21 41 105 130 122 130 17 0 44 -74 44 -123 0 -23 -9 -59 -20 -80 -11 -20
-17 -37 -13 -37 5 0 86 48 112 66 2 2 -4 24 -13 50 -20 61 -20 113 1 166 18
48 72 128 85 128 5 0 22 -21 38 -47 32 -50 40 -116 20 -167 -14 -38 0 -32 54
23 l47 48 -25 38 c-40 59 -51 110 -37 178 14 70 40 127 57 127 22 0 92 -89 98
-125 4 -19 4 -52 0 -72 l-7 -38 20 25 c11 14 32 44 46 66 l26 41 -35 34 c-68
66 -92 168 -63 271 l10 38 37 -19 c20 -11 49 -32 64 -48 27 -29 53 -105 44
-129 -3 -8 -2 -14 3 -14 8 0 65 140 59 145 -2 1 -20 11 -40 24 -83 50 -118
116 -118 224 0 52 2 57 22 57 35 0 106 -39 129 -71 11 -16 23 -45 26 -64 3
-19 9 -35 13 -35 9 0 30 151 23 163 -2 4 -13 7 -24 7 -29 0 -90 34 -121 67
-31 32 -63 101 -73 156 l-7 37 43 0 c47 0 116 -27 137 -52 7 -9 21 -33 32 -54
l19 -39 0 50 c1 83 -9 125 -30 125 -10 0 -41 5 -70 11 -60 13 -123 64 -164
134 -36 62 -33 73 21 81 68 10 121 -10 171 -63 l42 -44 -23 73 -22 73 -65 -3
c-89 -5 -135 16 -205 91 l-56 60 37 19 c42 22 121 26 156 8 13 -7 39 -26 57
-43 37 -36 40 -31 12 22 -12 24 -36 49 -64 65 -56 33 -89 72 -133 160 -19 39
-44 83 -55 98 l-19 27 34 6 c54 10 114 -11 161 -58 47 -48 62 -90 75 -207 6
-52 21 -103 47 -163 l39 -88 6 63 c4 35 11 75 17 90 14 34 80 108 97 108 22 0
48 -82 52 -165 3 -70 1 -85 -19 -120 -13 -22 -37 -49 -54 -60 -18 -11 -39 -24
-47 -30 -14 -9 -14 -18 -2 -78 7 -37 15 -70 18 -73 2 -3 7 14 11 37 13 78 77
165 136 184 28 9 31 5 41 -57 11 -70 -4 -162 -35 -208 -24 -37 -94 -80 -129
-80 -15 0 -17 -12 -17 -92 l0 -93 34 60 c37 68 92 112 150 122 l39 6 -5 -71
c-10 -139 -78 -226 -185 -238 l-50 -6 -19 -85 -20 -84 38 45 c47 55 109 86
172 86 47 0 48 0 42 -27 -4 -16 -23 -61 -42 -101 -29 -60 -45 -79 -82 -103
-41 -26 -55 -30 -111 -28 l-63 2 -34 -72 c-31 -67 -32 -72 -11 -57 61 44 97
56 166 56 38 0 72 -4 75 -8 8 -13 -48 -103 -89 -144 -20 -20 -52 -44 -70 -52
-41 -20 -117 -21 -154 -1 -28 14 -29 14 -75 -45 -25 -33 -46 -62 -46 -64 0 -2
24 5 53 16 37 14 66 19 102 15 58 -6 105 -25 105 -43 0 -6 -27 -37 -60 -67
-96 -90 -188 -108 -280 -55 l-37 22 -57 -48 c-31 -27 -56 -50 -56 -51 0 -2 17
1 37 7 47 13 112 4 161 -21 67 -34 69 -45 16 -82 -124 -85 -234 -91 -311 -17
l-32 31 -65 -29 c-36 -16 -66 -32 -66 -36 0 -5 19 -8 43 -8 23 0 60 -9 82 -19
37 -17 105 -76 105 -92 0 -11 -111 -48 -165 -55 -90 -11 -170 27 -210 100 -10
18 -13 18 -85 2 -41 -9 -93 -22 -115 -28 l-40 -10 50 -25 c90 -45 205 -117
202 -127 -10 -29 -35 -28 -78 1 -52 36 -222 123 -239 123 -19 0 -184 -85 -237
-122 -45 -30 -70 -31 -80 -2 -3 10 112 82 201 127 l50 24 -35 11 c-19 6 -70
18 -114 27 -77 17 -80 17 -90 -1 -54 -98 -176 -128 -308 -77 -68 26 -72 34
-35 72 42 44 102 71 156 71 23 0 42 3 42 8 0 4 -30 20 -66 36 l-65 29 -32 -31
c-77 -74 -187 -68 -311 17 -54 37 -52 47 18 84 31 16 58 21 113 21 l73 0 -48
43 c-26 23 -51 42 -56 43 -5 0 -25 -10 -45 -22 -50 -31 -131 -31 -191 0 -48
25 -140 109 -140 128 0 16 48 35 105 41 36 4 65 -1 103 -15 28 -11 52 -18 52
-16 0 2 -21 31 -46 64 -46 59 -47 59 -75 45 -37 -20 -113 -19 -154 1 -45 21
-101 79 -136 139 -34 59 -29 65 59 65 62 0 100 -13 159 -56 21 -15 20 -10 -11
57 l-34 72 -63 -2 c-56 -2 -70 2 -111 28 -37 24 -53 43 -82 103 -19 40 -38 85
-42 101 -6 27 -5 27 42 27 62 0 124 -30 170 -83 32 -37 36 -39 31 -17 -3 14
-11 50 -17 81 l-13 57 -50 5 c-107 13 -175 100 -185 239 l-5 71 39 -6 c59 -10
115 -54 151 -122 l32 -60 1 91 0 92 -32 6 c-46 9 -105 50 -123 87 -24 45 -36
136 -26 197 10 62 13 66 41 57 59 -19 123 -106 136 -184 4 -23 9 -40 11 -37 3
3 11 36 18 73 12 60 12 69 -2 78 -8 6 -29 19 -47 30 -17 11 -41 38 -54 60 -20
35 -22 50 -19 120 4 83 30 165 52 165 17 0 83 -74 96 -108 6 -15 14 -55 17
-90 l7 -63 39 88 c27 62 41 111 47 166 13 114 25 150 67 196 49 56 119 81 179
65z m113 -1377 c0 -2 -10 -12 -22 -23 l-23 -19 19 23 c18 21 26 27 26 19z"/>
</g>
</svg>
