<svg xmlns="http://www.w3.org/2000/svg" version="1.0" width="311.000000" height="301.000000" preserveAspectRatio="xMidYMid meet"><rect id="backgroundrect" width="100%" height="100%" x="0" y="0" fill="none" stroke="none"/>
<metadata>
Created by potrace 1.13, written by Peter Selinger 2001-2015
</metadata>

<g class="currentLayer"><title>Layer 1</title><g transform="translate(0,301) scale(0.10000000149011612,-0.10000000149011612) " fill="#ffd88f" stroke="none" id="svg_1" class="" fill-opacity="1">
<path d="M1559 2829 c-20 -10 -54 -74 -100 -184 -18 -44 -43 -99 -56 -122 -13 -23 -23 -47 -23 -53 0 -6 -20 -53 -45 -104 -25 -52 -45 -97 -45 -100 0 -6 -41 -99 -75 -171 -13 -27 -41 -90 -63 -140 -70 -162 -243 -549 -273 -613 -16 -34 -52 -86 -79 -114 -83 -87 -82 -88 140 -88 181 0 190 1 190 19 0 11 -4 21 -9 23 -27 9 -111 102 -111 121 0 12 16 53 35 91 19 37 35 74 35 81 0 6 20 52 44 101 24 49 47 100 51 114 4 14 21 54 37 90 16 36 38 84 49 107 10 24 19 46 19 49 0 3 23 53 50 110 28 57 50 107 50 111 0 4 9 25 19 47 11 23 36 77 56 121 62 137 110 235 115 235 6 0 67 -128 91 -190 9 -25 31 -73 48 -107 17 -34 31 -64 31 -67 0 -8 76 -180 106 -239 13 -27 24 -53 24 -57 0 -5 20 -51 45 -102 25 -51 45 -100 45 -108 0 -8 9 -30 21 -49 11 -18 36 -72 55 -120 20 -47 47 -109 60 -138 33 -72 31 -100 -11 -145 -20 -21 -45 -44 -57 -52 -12 -9 -18 -21 -15 -30 6 -14 33 -16 191 -16 102 0 187 4 190 9 6 9 -25 51 -77 105 -30 32 -57 86 -157 316 -35 80 -75 170 -91 200 -15 30 -37 80 -48 110 -12 30 -33 80 -47 110 -35 73 -59 126 -79 175 -9 22 -34 76 -55 120 -21 44 -41 91 -45 105 -4 14 -17 45 -30 70 -33 66 -69 147 -96 215 -12 33 -28 67 -35 75 -6 8 -15 25 -18 36 -10 33 -38 54 -57 43z" id="svg_2" fill="#ffd88f" fill-opacity="1"/>
<path d="M585 2615 c-49 -17 -111 -84 -125 -136 -6 -20 -14 -73 -19 -116 -6 -55 -20 -104 -47 -166 l-39 -88 -6 63 c-4 35 -12 77 -18 93 -14 34 -79 105 -97 105 -21 0 -47 -83 -51 -165 -3 -70 -1 -85 19 -120 13 -22 37 -49 54 -60 18 -11 39 -24 47 -30 14 -9 14 -18 2 -78 -7 -37 -15 -70 -18 -73 -2 -3 -7 14 -11 37 -4 22 -15 58 -26 78 -33 66 -122 130 -140 101 -26 -42 -17 -187 15 -250 18 -36 77 -77 123 -86 l32 -6 0 -92 -1 -91 -23 48 c-13 27 -34 59 -47 73 -27 29 -97 64 -129 64 -22 0 -23 -2 -18 -70 10 -137 78 -224 185 -237 l50 -5 13 -57 c6 -31 14 -67 17 -81 5 -22 1 -20 -31 17 -20 23 -55 51 -79 62 -44 22 -137 29 -137 11 0 -20 44 -127 67 -161 42 -65 79 -84 161 -86 l74 -2 29 -62 c31 -65 31 -83 2 -57 -39 34 -87 50 -149 50 -34 0 -67 -3 -73 -7 -16 -9 33 -97 81 -145 21 -21 53 -45 72 -54 43 -20 118 -21 156 -1 29 15 29 15 59 -28 16 -24 36 -49 45 -56 28 -23 17 -32 -16 -14 -62 32 -228 16 -228 -22 0 -24 117 -122 166 -139 66 -22 103 -20 158 9 26 14 50 25 54 25 4 -1 28 -20 54 -43 l48 -43 -73 0 c-73 1 -136 -21 -166 -57 -25 -31 137 -117 218 -117 53 0 89 15 129 53 l32 31 68 -34 67 -34 -55 -6 c-30 -4 -69 -14 -86 -23 -30 -16 -94 -75 -94 -88 0 -11 110 -49 163 -55 92 -11 171 27 212 100 10 18 13 18 85 2 41 -9 93 -22 115 -28 l40 -10 -50 -25 c-90 -45 -205 -117 -202 -127 10 -29 35 -27 88 7 31 20 95 55 142 78 l87 43 82 -39 c45 -22 109 -57 142 -79 58 -37 83 -40 93 -10 3 10 -112 82 -202 127 l-50 25 40 10 c22 6 74 19 115 28 72 16 75 16 85 -2 41 -73 120 -111 212 -100 53 6 163 44 163 55 0 13 -64 72 -94 88 -17 9 -56 19 -86 23 l-55 6 67 34 68 34 32 -31 c18 -18 46 -37 61 -42 67 -26 161 -4 251 58 54 37 52 47 -18 84 -31 16 -58 21 -113 21 l-73 0 48 43 c26 23 51 42 56 43 5 0 25 -10 45 -22 46 -29 140 -31 190 -4 43 23 141 114 141 131 0 38 -167 54 -227 22 -18 -10 -33 -15 -33 -12 0 3 21 32 46 65 46 59 47 59 75 45 37 -20 113 -19 155 1 47 22 104 82 137 142 33 60 29 65 -57 65 -61 0 -110 -17 -149 -51 -29 -26 -29 -8 2 57 l29 62 74 2 c82 2 119 21 161 86 23 34 67 141 67 161 0 18 -93 11 -137 -11 -24 -11 -59 -39 -79 -62 -31 -36 -36 -38 -30 -17 3 14 11 50 17 81 l11 56 51 6 c108 13 175 99 185 239 5 66 4 68 -18 68 -31 0 -101 -35 -128 -63 -11 -12 -32 -44 -46 -72 l-25 -50 -1 93 c0 80 2 92 17 92 34 0 105 43 128 79 31 46 47 127 39 196 -8 67 -16 79 -43 70 -60 -19 -124 -105 -137 -184 -4 -23 -9 -40 -11 -37 -3 3 -11 36 -18 73 -12 60 -12 69 2 78 8 6 29 19 47 30 17 11 41 38 54 60 20 35 22 50 19 120 -3 48 -12 100 -24 129 l-20 49 -40 -37 c-52 -47 -75 -95 -82 -174 l-6 -63 -39 88 c-27 62 -41 111 -47 166 -13 118 -25 153 -72 201 -47 49 -108 72 -164 61 l-34 -6 19 -27 c11 -15 36 -59 55 -98 44 -88 77 -127 133 -160 28 -16 52 -41 64 -65 28 -53 25 -58 -12 -22 -18 17 -44 36 -57 43 -36 19 -112 15 -156 -8 l-39 -19 55 -58 c70 -75 120 -98 206 -93 l66 3 12 -35 c7 -20 16 -51 20 -69 l7 -34 -38 40 c-47 49 -103 68 -168 59 -58 -9 -59 -22 -6 -101 49 -75 91 -104 173 -118 64 -11 65 -11 71 -46 3 -20 6 -58 5 -86 l0 -50 -19 39 c-11 21 -25 45 -32 54 -21 25 -90 52 -137 52 l-43 0 7 -37 c21 -118 95 -202 198 -227 20 -5 27 -11 23 -24 -2 -9 -8 -45 -11 -79 -8 -72 -20 -81 -29 -23 -8 52 -61 105 -124 123 -26 8 -51 12 -55 10 -9 -5 -1 -97 15 -156 11 -45 75 -119 118 -137 17 -7 30 -14 30 -16 0 -1 -12 -35 -27 -75 l-27 -73 -13 59 c-9 38 -24 70 -41 88 -35 37 -99 71 -107 56 -14 -21 -18 -166 -6 -202 7 -20 32 -58 55 -84 l43 -48 -44 -65 -45 -65 7 42 c4 22 2 58 -4 79 -10 38 -75 114 -97 114 -6 0 -21 -21 -32 -47 -42 -100 -38 -182 14 -258 l25 -38 -47 -48 c-54 -55 -68 -61 -54 -23 20 51 12 117 -20 167 -16 26 -33 47 -38 47 -13 0 -67 -80 -85 -128 -21 -53 -22 -107 -2 -162 8 -23 15 -44 15 -46 0 -5 -107 -74 -115 -74 -3 0 4 17 15 37 12 23 20 57 20 85 0 50 -26 118 -45 118 -16 0 -100 -90 -121 -130 -13 -24 -19 -59 -19 -109 l-1 -74 -40 -15 c-60 -21 -164 -49 -213 -57 -25 -4 -68 -15 -97 -25 -47 -17 -56 -17 -95 -4 -24 9 -84 24 -133 34 -50 11 -122 30 -161 43 l-70 24 0 74 c-1 52 -6 85 -19 109 -21 41 -105 130 -122 130 -18 0 -44 -75 -44 -127 0 -29 8 -58 21 -79 11 -19 18 -34 14 -34 -8 0 -115 68 -115 74 0 2 7 23 15 46 18 51 19 105 3 151 -14 42 -76 139 -89 139 -5 0 -23 -21 -39 -47 -32 -50 -40 -116 -20 -167 14 -38 0 -32 -54 23 l-47 48 25 38 c52 76 56 158 14 258 -11 26 -26 47 -32 47 -21 0 -83 -74 -96 -113 -7 -22 -9 -55 -5 -80 l7 -42 -29 40 c-67 94 -66 88 -26 126 19 19 44 52 54 74 21 45 25 138 8 197 l-10 38 -37 -19 c-60 -31 -90 -70 -105 -136 l-13 -59 -27 73 c-15 40 -27 74 -27 75 0 2 13 9 30 16 42 18 107 92 119 137 13 48 21 152 12 157 -4 3 -31 -4 -61 -14 -65 -22 -108 -67 -117 -122 -8 -56 -20 -46 -28 25 -3 34 -9 70 -11 79 -4 13 3 19 23 24 103 25 177 109 198 227 l7 37 -43 0 c-47 0 -116 -27 -137 -52 -7 -9 -21 -33 -32 -54 l-19 -39 0 50 c-1 28 2 66 5 86 6 35 7 35 69 46 80 14 129 47 177 120 51 77 50 90 -8 99 -65 9 -121 -10 -166 -58 -43 -44 -47 -34 -19 47 l18 50 64 -3 c89 -5 136 16 205 91 l56 60 -38 20 c-43 22 -119 25 -155 7 -13 -7 -39 -26 -56 -43 -38 -36 -41 -31 -13 22 12 24 36 49 64 65 56 33 89 72 133 160 19 39 44 83 54 97 19 26 19 27 -4 33 -33 9 -58 7 -102 -9z" id="svg_3" fill="#ffd88f" fill-opacity="1"/>
</g></g></svg>